<svg width="128" height="128" viewBox="0 0 128 128" fill="none" xmlns="http://www.w3.org/2000/svg">
<path d="M24 95.017H38V61.017L18 46.017V89.017C18 92.337 20.69 95.017 24 95.017Z" fill="#4285F4"/>
<path d="M86 35.017V61.017L106 46.017V38.017C106 30.597 97.53 26.367 91.6 30.817" fill="#FBBC04"/>
<path d="M38 61.017V35.017L62 53.017L86 35.017V61.017L62 79.017" fill="#EA4335"/>
<path d="M18 38.017V46.017L38 61.017V35.017L32.4 30.817C26.46 26.367 18 30.597 18 38.017Z" fill="#C5221F"/>
<path d="M104.397 98.6567L95.9117 107.142C92.9772 110.076 89.4417 111.544 85.3051 111.544C81.1685 111.544 77.633 110.076 74.6985 107.142C71.764 104.208 70.2968 100.672 70.2968 96.5354C70.2968 92.3988 71.764 88.8633 74.6985 85.9288L83.1838 77.4435L87.4264 81.6862L78.9411 90.1714C77.1734 91.9392 76.2895 94.0605 76.2895 96.5354C76.2895 99.0103 77.1734 101.132 78.9411 102.899C80.7089 104.667 82.8302 105.551 85.3051 105.551C87.78 105.551 89.9013 104.667 91.6691 102.899L100.154 94.4141L104.397 98.6567ZM89.5477 96.5354L85.3051 92.2928L102.276 75.3222L106.518 79.5648L89.5477 96.5354ZM108.64 94.4141L104.397 90.1714L112.882 81.6862C114.65 79.9184 115.534 77.7971 115.534 75.3222C115.534 72.8473 114.65 70.726 112.882 68.9582C111.114 67.1905 108.993 66.3066 106.518 66.3066C104.043 66.3066 101.922 67.1905 100.154 68.9582L91.6691 77.4435L87.4264 73.2009L95.9117 64.7156C98.8462 61.7811 102.382 60.3139 106.518 60.3139C110.655 60.3139 114.19 61.7811 117.125 64.7156C120.059 67.6501 121.527 71.1856 121.527 75.3222C121.527 79.4588 120.059 82.9943 117.125 85.9288L108.64 94.4141Z" fill="#34A853"/>
</svg>
